# xmcd
#
# Track frame offsets: 
#        200
#        18242
#        30607
#        44810
#        57955
#        72830
#        82667
#        95400
#        110912
#        126905
#        141072
#        153625
#        169162
#
# Disc length: 2425 seconds
#
# Revision: 0
# Processed by: cddbd v1.5.1PL0 Copyright (c) Steve Scherf et al.
# Submitted via: ExactAudioCopy v0.95a4
#
DISCID=b009770d
DTITLE=Jed Clampit - Front Porch Contemporary Musician
DYEAR=1996
DGENRE=Blues
TTITLE0=Break and Run
TTITLE1=This Time
TTITLE2=Crawdad Song
TTITLE3=Don't Put Me In Charge (Of Your Heart)
TTITLE4=Let the Rest of the World Go By
TTITLE5=Ten More Payments
TTITLE6=Give My Heart A Break
TTITLE7=Shortnin' Bread
TTITLE8=Straight and Bending
TTITLE9=Blow Wind Blow
TTITLE10=I'm Too Old To Live Like This
TTITLE11=Old Wranglers (A Song For Jim and Renee)
TTITLE12=Amazing Grace
EXTD=
EXTT0=
EXTT1=
EXTT2=
EXTT3=
EXTT4=
EXTT5=
EXTT6=
EXTT7=
EXTT8=
EXTT9=
EXTT10=
EXTT11=
EXTT12=
PLAYORDER=
